<?xml version="1.0" encoding="UTF-8"?>
<svg id="Livello_1" data-name="Livello 1" xmlns="http://www.w3.org/2000/svg" viewBox="0 0 396.83 445.66">
  <defs>
    <style>
      .cls-1, .cls-2, .cls-3, .cls-4, .cls-5, .cls-6, .cls-7, .cls-8, .cls-9, .cls-10, .cls-11 {
        stroke-miterlimit: 10;
      }

      .cls-1, .cls-2, .cls-6, .cls-7, .cls-8, .cls-9, .cls-12 {
        fill: #f2f2f2;
      }

      .cls-1, .cls-2, .cls-9 {
        stroke-width: .25px;
      }

      .cls-1, .cls-2, .cls-11 {
        stroke: #000;
      }

      .cls-1, .cls-6, .cls-7, .cls-8, .cls-9 {
        opacity: .64;
      }

      .cls-2, .cls-12 {
        opacity: .66;
      }

      .cls-3 {
        stroke-width: 1.93px;
      }

      .cls-3, .cls-4, .cls-5 {
        opacity: .37;
      }

      .cls-3, .cls-4, .cls-5, .cls-6, .cls-7, .cls-8, .cls-9, .cls-10 {
        stroke: #2a4b9b;
      }

      .cls-3, .cls-4, .cls-5, .cls-10, .cls-11 {
        fill: #00aa9e;
      }

      .cls-13 {
        fill: #012438;
        opacity: .95;
      }

      .cls-4, .cls-10 {
        stroke-width: 2px;
      }

      .cls-5 {
        stroke-width: 2.23px;
      }

      .cls-6 {
        stroke-width: .5px;
      }

      .cls-7 {
        stroke-width: .35px;
      }

      .cls-8 {
        stroke-width: .46px;
      }

      .cls-10, .cls-11 {
        opacity: .29;
      }

      .cls-11 {
        stroke-width: .23px;
      }
    </style>
  </defs>
  <path class="cls-11" d="M288.54,156.06c.92,1.86.67,5-2.5,3.76-1.29-.5-1-2.17,0-3.76,1.11-1.75-2.76-3.76-1.38-3.76s2.67,1.29,3.88,3.76Z"/>
  <path class="cls-3" d="M334.94,432.18l-6.66,1c-.41.95-8.05,2.08-10.24,2.29-7.77.73-13.03,1.65-25.34,2.43-16.46,1.04-13.37,1-17.39,1.16-15.12.59-28.68.07-40.96-.53-.7-.03-1.34-.03-2.09-.09-34.41-2.69-68.82-5.39-103.23-8.08,12.63.68,25.12,1.09,37.32,1.19,36.7.3,57.55-2.43,85.09-6.53.75-.11,1.06-.41,1.59-.62,11.28-4.41,14.43-7.88,14.45-15.14,0-.81,0-1.67-.52-2.67l-4.22-8.22c-.43-.85,1.11-2.65,1.11-2.65,13.17-1.62,64.22,21.85,70.45,27.25,8.34,7.23,1.4,7.48.65,9.22Z"/>
  <path class="cls-4" d="M315.06,92.05c-21.52,12.62-21.26-69.38-140.45-24.28-119.19,45.1-41.41,378.75-37.3,353.36,4.64-28.68-199.01-332.96.41-406.83,115.6-42.82,217.02,54.47,177.35,77.74Z"/>
  <path class="cls-4" d="M227.69,439c29.4,20.64-112.46-123.14-27.64-232.37,75.56-97.3,134.57,22.82,117.2.97-27.93-35.15-101.46-99.75-146.12-22.15-82.48,143.31,32.8,236.87,56.55,253.55Z"/>
  <path class="cls-4" d="M242.08,106.22c25.16,10.38-104.54-30.32-94.84,104.3,9.7,134.62,54.33,237.41,30.27,224.66-45.8-24.27-107-127.58-98.98-214.59,14.81-160.69,137.38-125.17,163.56-114.37Z"/>
  <path class="cls-4" d="M207.75,397.27c18.79,29.6-34-141.18,84.98-204.9,118.98-63.71,113.11,39.87,89.07,21.53-41.21-31.44-60.98-119.62-130.25-66.35-127.93,98.36-58.98,225.81-43.8,249.73Z"/>
  <path class="cls-4" d="M268.67,142.01c26.78,6.03-53.43-91.47-70.29,36.37-16.86,127.84-1.29,231.79-17.38,215.74-30.62-30.54-58.76-137.79-36.94-218,40.3-148.11,102.98-38.99,124.62-34.12Z"/>
  <circle class="cls-10" cx="299.77" cy="93.6" r="1.81"/>
  <circle class="cls-10" cx="304.61" cy="102.3" r="1.81"/>
  <circle class="cls-10" cx="335.66" cy="97.06" r="1.81"/>
  <circle class="cls-8" cx="254.74" cy="80.22" r="1.81"/>
  <ellipse class="cls-10" cx="287.16" cy="84.72" rx="3.53" ry="2.09"/>
  <path class="cls-10" d="M321.27,109.82c1.83,3.72,1.33,10-5,7.52-2.57-1.01-2-4.35,0-7.52,2.22-3.51-5.52-7.52-2.76-7.52s5.34,2.59,7.76,7.52Z"/>
  <circle class="cls-12" cx="204.87" cy="24.09" r="1.81"/>
  <circle class="cls-12" cx="297.96" cy="24.09" r="1.81"/>
  <circle class="cls-2" cx="311.18" cy="38.96" r="4.19"/>
  <circle class="cls-12" cx="228.19" cy="88.13" r="2.88"/>
  <circle class="cls-12" cx="217.94" cy="88.65" r="1.83"/>
  <circle class="cls-12" cx="214.68" cy="92.45" r="1.44"/>
  <ellipse class="cls-10" cx="142.75" cy="32.68" rx="3.53" ry="2.09"/>
  <path class="cls-12" d="M215.63,47.05c.95,1.93.69,5.18-2.59,3.89-1.33-.52-1.04-2.25,0-3.89,1.15-1.82-2.86-3.89-1.43-3.89s2.76,1.34,4.02,3.89Z"/>
  <path class="cls-10" d="M303.4,15.32c3.24.37,7.17,3.37,2.84,6.5-1.76,1.27-3.72-.53-4.97-3.19-1.38-2.96-7.31.46-6.14-1.37,1.17-1.82,3.98-2.43,8.26-1.94Z"/>
  <path class="cls-13" d="M202.17,428.12c-27.51-9.06-58.66-26.26-92.58-51.14l-3.87-10.61,35-100.55,3.18-9.66h0l4.74,12.27c-1.3,35.76,12.81,64.74,21.91,85.4,8.63,19.6,21.68,32.04,39.89,38.04,12.35,4.07,23.29,3.81,33.45-.8,9.85-4.46,16.5-12.26,20.31-23.85s2.44-21.87-4.12-31.72c-3.15-4.83-12.28-16.34-38.17-44.18-21.91-23.56-36.18-40.85-43.59-52.86-12.95-20.67-15.7-42.81-8.14-65.76,8.08-24.54,24.46-41.59,48.68-50.68,23.42-8.79,49.87-8.44,78.63,1.03,22.08,7.27,47.83,21.97,76.53,43.7l3.93,9.52-19.9,68.85-13.62,17.61h0l7.34-17.52c1.54-25.34-11.36-39.2-24.96-57.15-11.25-14.85-20.03-27.37-35.97-32.62-8.65-2.85-16.37-2.73-23.6.35-6.85,2.93-11.07,7.41-13.28,14.12-2.04,6.21-1.74,11.47.96,16.57,2.43,4.61,9.54,14.6,29.58,36.06,28.06,29.95,46.63,52.06,56.77,67.59,17.36,25.57,21.37,53.11,11.9,81.86-4.74,14.41-11.98,26.66-21.49,36.41-9.52,9.76-21.37,17.21-35.22,22.15-13.56,4.85-28.65,7.07-44.84,6.62-15.91-.45-32.55-3.5-49.47-9.07ZM242.49,273.17c24.46,25.95,28.79,39.04,34.78,49.72,9.6,16.89,19.06,32.25,12.93,50.86-2.35,7.13-35.93,35.99-39.73,41.53,9.89-6.41,43.19-30.16,56.32-33.39,13.02-3.21,30.12-29.86,22.83-44.94l-32.98-49.4c-12.98-19.73-27.38-32.18-33.57-41.56l-7.75-5.23c-22.16-23.51-12.16-15.12-18.75-27.58-7.31-13.83-19.77-52.35-15.39-66.09-2.95,4.12-30.23,33.11-31.95,38.33-4.46,13.55,8.2,21.7,14.81,33.3l-8.83,5.03c5.7,10.28,26.26,26.41,47.3,49.42Z"/>
  <path class="cls-4" d="M207.93,239.89c34.96,2.59-60.97-163.3-60.97-28.33,0,134.97,37.13,240.7,14.04,226.25-43.93-27.5-97.55-134.94-83.3-221.15,26.32-159.21,101.99,21.14,130.23,23.23Z"/>
  <path class="cls-4" d="M256.42,103.18s1.25,2.5.15,5.2c-9.93,24.39-196.19-34.25-168.48,86.52,29.33,127.86,117.01,252.43,90.77,248.92-56.51-7.55-128.62-127.33-157.38-215.15-5.01-15.31-50.8-163.83,13.44-202.46,97.36-58.55,165.49,54.37,199.95,68.19,2.95,1.18,18.62.93,21.55,8.78Z"/>
  <path class="cls-5" d="M198.95,443.15c29.82,23.82-130.76-264.8,23.02-263.15,167.05,1.8,95.8,83.1,110.44,34.44,14.11-46.91-94.72-162.95-196.09-63.38-131.03,128.7,38.53,272.85,62.63,292.1Z"/>
  <path class="cls-1" d="M294.99,31.9c0,4.06-4.05,7.35-9.04,7.35-.97,0-1.91-.12-2.79-.36-.18.64-.44,1.27-.78,1.87-2.28,4.05-7.33,5.44-11.28,3.1-2.78-1.64-4.27-4.68-4.12-7.75-3.36-.67-5.83-2.96-5.83-5.68,0-3.25,3.53-5.88,7.88-5.88,3.26,0,6.06,1.47,7.26,3.58.55.07,1.1.2,1.64.39,1.5-2.36,4.53-3.97,8.02-3.97,4.99,0,9.04,3.29,9.04,7.35Z"/>
  <path class="cls-1" d="M339.54,80.09c0,4.06-4.15,7.35-9.26,7.35-1,0-1.96-.12-2.86-.36-.19.64-.45,1.27-.8,1.87-2.34,4.05-7.51,5.44-11.56,3.1-2.85-1.64-4.38-4.68-4.22-7.75-3.45-.67-5.98-2.96-5.98-5.68,0-3.25,3.62-5.88,8.08-5.88,3.34,0,6.21,1.47,7.44,3.58.56.07,1.13.2,1.68.39,1.54-2.36,4.65-3.97,8.22-3.97,5.11,0,9.26,3.29,9.26,7.35Z"/>
  <path class="cls-1" d="M299.59,43.97c2.88-2.86,8.14-2.23,11.74,1.39.7.71,1.29,1.48,1.76,2.28.59-.32,1.22-.57,1.89-.75,4.52-1.19,9.15,1.5,10.34,6.02.84,3.18-.24,6.4-2.52,8.46,1.95,2.92,2.12,6.33.19,8.24-2.3,2.29-6.72,1.57-9.87-1.59-2.36-2.37-3.33-5.44-2.7-7.8-.34-.45-.65-.94-.9-1.47-2.76.57-6.09-.5-8.61-3.04-3.6-3.63-4.19-8.89-1.31-11.75Z"/>
  <path class="cls-1" d="M291.15,35.08c1.62-1.61,4.58-1.26,6.61.79.4.4.73.83.99,1.28.33-.18.69-.32,1.07-.42,2.55-.67,5.15.84,5.83,3.39.47,1.79-.14,3.61-1.42,4.76,1.1,1.64,1.19,3.56.11,4.64-1.3,1.29-3.79.89-5.56-.9-1.33-1.34-1.88-3.07-1.52-4.39-.19-.25-.37-.53-.51-.83-1.55.32-3.43-.28-4.85-1.71-2.03-2.04-2.36-5.01-.74-6.62Z"/>
  <path class="cls-7" d="M300.54,56.13c1.62-1.61,4.58-1.26,6.61.79.4.4.73.83.99,1.28.33-.18.69-.32,1.07-.42,2.55-.67,5.15.84,5.83,3.39.47,1.79-.14,3.61-1.42,4.76,1.1,1.64,1.19,3.56.11,4.64-1.3,1.29-3.79.89-5.56-.9-1.33-1.34-1.88-3.07-1.52-4.39-.19-.25-.37-.53-.51-.83-1.55.32-3.43-.28-4.85-1.71-2.03-2.04-2.36-5.01-.74-6.62Z"/>
  <path class="cls-1" d="M297.58,66.89c2.75-3,8.37-2.32,12.56,1.52.81.75,1.52,1.56,2.1,2.41.59-.33,1.23-.6,1.92-.78,4.66-1.24,9.83,1.62,11.56,6.39,1.22,3.35.4,6.75-1.8,8.9,2.36,3.08,2.89,6.67,1.05,8.68-2.2,2.4-6.95,1.63-10.6-1.72-2.74-2.51-4.08-5.75-3.66-8.23-.41-.48-.79-1-1.11-1.55-2.86.59-6.49-.55-9.42-3.24-4.18-3.84-5.35-9.38-2.6-12.38Z"/>
  <path class="cls-1" d="M287.2,40.94c2.75-3,8.37-2.32,12.56,1.52.81.75,1.52,1.56,2.1,2.41.59-.33,1.23-.6,1.92-.78,4.66-1.24,9.83,1.62,11.56,6.39,1.22,3.35.4,6.75-1.8,8.9,2.36,3.08,2.89,6.67,1.05,8.68-2.2,2.4-6.95,1.63-10.6-1.72-2.74-2.51-4.08-5.75-3.66-8.23-.41-.48-.79-1-1.11-1.55-2.86.59-6.49-.55-9.42-3.24-4.18-3.84-5.35-9.38-2.6-12.38Z"/>
  <circle class="cls-12" cx="174.75" cy="4.19" r="4.19"/>
  <path class="cls-9" d="M169.53,30c-.17,4.05-4.36,7.17-9.34,6.95-.97-.04-1.9-.21-2.77-.48-.21.63-.49,1.25-.86,1.83-2.45,3.95-7.56,5.12-11.4,2.61-2.7-1.76-4.06-4.86-3.79-7.92-3.33-.82-5.7-3.2-5.59-5.92.14-3.24,3.78-5.72,8.13-5.53,3.26.14,5.99,1.73,7.1,3.89.54.1,1.09.25,1.62.46,1.6-2.3,4.7-3.77,8.19-3.62,4.98.21,8.89,3.67,8.71,7.73Z"/>
  <path class="cls-9" d="M185.77,45.67c2.48-3.21,7.78-3.27,11.82-.14.79.61,1.47,1.3,2.04,2.03.54-.39,1.13-.73,1.78-.99,4.33-1.77,9.27.3,11.04,4.63,1.25,3.04.59,6.38-1.41,8.71,2.31,2.64,2.92,6,1.25,8.15-1.99,2.57-6.46,2.43-9.99-.3-2.64-2.05-4.01-4.97-3.69-7.38-.4-.4-.77-.85-1.09-1.34-2.66.93-6.11.29-8.93-1.9-4.04-3.13-5.31-8.27-2.82-11.48Z"/>
  <path class="cls-9" d="M167.33,35.59c.87-3.96,5.62-6.29,10.62-5.2.97.21,1.89.54,2.72.96.32-.58.71-1.14,1.18-1.66,3.15-3.46,8.5-3.71,11.95-.56,2.43,2.21,3.27,5.51,2.47,8.47,3.22,1.39,5.21,4.17,4.63,6.82-.69,3.17-4.79,4.97-9.15,4.02-3.27-.71-5.75-2.77-6.5-5.08-.53-.19-1.06-.44-1.56-.74-2.01,1.98-5.39,2.89-8.88,2.12-5-1.09-8.34-5.19-7.48-9.16Z"/>
  <path class="cls-9" d="M152.12,32.79c.49-2.23,3.17-3.54,5.98-2.93.55.12,1.06.3,1.53.54.18-.33.4-.64.67-.93,1.77-1.95,4.79-2.09,6.73-.31,1.37,1.25,1.84,3.1,1.39,4.77,1.82.78,2.93,2.35,2.61,3.84-.39,1.79-2.7,2.8-5.15,2.26-1.84-.4-3.24-1.56-3.66-2.86-.3-.11-.6-.25-.88-.42-1.13,1.11-3.03,1.63-5,1.2-2.81-.62-4.7-2.92-4.21-5.16Z"/>
  <path class="cls-6" d="M191.02,68.38c.68-4.01,5.78-6.49,11.37-5.54,1.09.19,2.12.49,3.07.89.31-.6.71-1.17,1.19-1.7,3.24-3.57,9.14-3.97,13.18-.9,2.84,2.15,4,5.45,3.32,8.45,3.66,1.31,6.05,4.04,5.59,6.73-.55,3.21-4.95,5.14-9.84,4.3-3.66-.62-6.55-2.61-7.54-4.93-.6-.18-1.2-.41-1.77-.7-2.08,2.05-5.76,3.06-9.67,2.39-5.6-.95-9.58-4.98-8.9-8.99Z"/>
  <path class="cls-9" d="M222.45,77.22c1.17-2.6,5.07-3.39,8.71-1.75.71.32,1.36.71,1.93,1.14.32-.35.69-.67,1.11-.94,2.83-1.85,6.91-1.09,9.12,1.71,1.55,1.97,1.76,4.41.76,6.33,2.26,1.54,3.4,3.81,2.61,5.56-.94,2.09-4.27,2.62-7.45,1.19-2.38-1.07-3.99-2.93-4.25-4.68-.38-.23,2.2,17.16,1.86,16.86-1.78,1.02-7.4-16.59-9.94-17.73-3.64-1.64-5.63-5.08-4.46-7.68Z"/>
  <path class="cls-9" d="M151.34,41.6c.68-4.01,5.78-6.49,11.37-5.54,1.09.19,2.12.49,3.07.89.31-.6.71-1.17,1.19-1.7,3.24-3.57,9.14-3.97,13.18-.9,2.84,2.15,4,5.45,3.32,8.45,3.66,1.31,6.05,4.04,5.59,6.73-.55,3.21-4.95,5.14-9.84,4.3-3.66-.62-6.55-2.61-7.54-4.93-.6-.18-1.2-.41-1.77-.7-2.08,2.05-5.76,3.06-9.67,2.39-5.6-.95-9.58-4.98-8.9-8.99Z"/>
</svg>