<?xml version="1.0" encoding="UTF-8"?>
<svg id="Livello_1" data-name="Livello 1" xmlns="http://www.w3.org/2000/svg" viewBox="0 0 1081 1081">
  <defs>
    <style>
      .cls-1 {
        fill: #999;
        opacity: .55;
      }

      .cls-1, .cls-2, .cls-3, .cls-4, .cls-5, .cls-6, .cls-7, .cls-8, .cls-9, .cls-10, .cls-11, .cls-12, .cls-13, .cls-14 {
        stroke-miterlimit: 10;
      }

      .cls-1, .cls-2, .cls-3, .cls-4, .cls-5, .cls-6, .cls-7, .cls-8, .cls-9, .cls-10, .cls-11, .cls-13 {
        stroke: #2a4b9b;
      }

      .cls-1, .cls-3, .cls-13 {
        stroke-width: 2px;
      }

      .cls-2 {
        stroke-width: 1.89px;
      }

      .cls-2, .cls-3, .cls-4 {
        opacity: .37;
      }

      .cls-2, .cls-3, .cls-4, .cls-13, .cls-14 {
        fill: #00aa9e;
      }

      .cls-15 {
        stroke-width: .82px;
      }

      .cls-15, .cls-16, .cls-17, .cls-18, .cls-19, .cls-20, .cls-21, .cls-22, .cls-23, .cls-24, .cls-25, .cls-26, .cls-27, .cls-28, .cls-29, .cls-30, .cls-31 {
        fill: none;
        stroke-linecap: round;
        stroke-linejoin: round;
      }

      .cls-15, .cls-16, .cls-17, .cls-18, .cls-19, .cls-20, .cls-21, .cls-22, .cls-23, .cls-24, .cls-25, .cls-26, .cls-27, .cls-28, .cls-29, .cls-30, .cls-31, .cls-12 {
        stroke: #fff;
      }

      .cls-16 {
        stroke-width: .52px;
      }

      .cls-4 {
        stroke-width: 2.23px;
      }

      .cls-17 {
        stroke-width: .63px;
      }

      .cls-18 {
        stroke-width: 1.13px;
      }

      .cls-19 {
        stroke-width: 1.19px;
      }

      .cls-20 {
        stroke-width: 1.15px;
      }

      .cls-21 {
        stroke-width: 1.15px;
      }

      .cls-22 {
        stroke-width: .78px;
      }

      .cls-23 {
        stroke-width: .77px;
      }

      .cls-24 {
        stroke-width: .71px;
      }

      .cls-25 {
        stroke-width: .87px;
      }

      .cls-26 {
        stroke-width: .85px;
      }

      .cls-27 {
        stroke-width: 1.02px;
      }

      .cls-28 {
        stroke-width: 1.06px;
      }

      .cls-29 {
        stroke-width: .95px;
      }

      .cls-30 {
        stroke-width: 1.18px;
      }

      .cls-5 {
        opacity: .53;
      }

      .cls-5, .cls-6 {
        stroke-width: .66px;
      }

      .cls-5, .cls-6, .cls-7, .cls-8, .cls-9, .cls-10, .cls-11, .cls-32 {
        fill: #f2f2f2;
      }

      .cls-33 {
        fill: #fff;
      }

      .cls-31 {
        stroke-width: 2.67px;
      }

      .cls-6, .cls-7, .cls-8, .cls-9, .cls-10, .cls-11 {
        opacity: .64;
      }

      .cls-7 {
        stroke-width: .35px;
      }

      .cls-8 {
        stroke-width: .63px;
      }

      .cls-9 {
        stroke-width: .62px;
      }

      .cls-10 {
        stroke-width: .46px;
      }

      .cls-11 {
        stroke-width: .33px;
      }

      .cls-13, .cls-14 {
        opacity: .29;
      }

      .cls-14 {
        stroke: #000;
        stroke-width: .23px;
      }

      .cls-32 {
        opacity: .66;
      }
    </style>
  </defs>
  <rect class="cls-12" x=".5" y=".5" width="1080" height="1080"/>
  <g>
    <path class="cls-4" d="M473.57,720.44c-37.71,5.93,145.85-90.4,110.29-240.03-35.56-149.62-136.56-17.23-113-24.76,38.28-12.24,165.09-58.07,172.71,41.09,14.07,183.13-139.54,218.91-170,223.7Z"/>
    <path class="cls-14" d="M585.69,442.05c.92,1.86.67,5-2.5,3.76-1.29-.5-1-2.17,0-3.76,1.11-1.75-2.76-3.76-1.38-3.76s2.67,1.29,3.88,3.76Z"/>
    <path class="cls-1" d="M624.64,724.12l-6.9.99c-.42.99-8.33,2.1-10.6,2.3-8.05.7-13.5,1.62-26.26,2.34-17.06.97-13.86.94-18.02,1.08-15.67.51-29.74-.13-42.47-.84-.73-.04-1.39-.05-2.17-.11-35.69-3.04-71.39-6.07-107.08-9.11,13.09.79,26.05,1.31,38.7,1.5,38.05.57,59.65-2.12,88.17-6.17.78-.11,1.1-.42,1.65-.63,11.66-4.5,14.9-8.07,14.87-15.61,0-.84-.02-1.73-.56-2.77l-4.43-8.56c-.46-.89,1.13-2.74,1.13-2.74,13.64-1.59,66.74,23.13,73.23,28.77,8.7,7.56,1.51,7.77.73,9.57Z"/>
    <path class="cls-3" d="M612.21,378.05c-21.52,12.62-21.26-69.38-140.45-24.28-119.19,45.1-41.41,378.75-37.3,353.36,4.64-28.68-199.01-332.96.41-406.83,115.6-42.82,217.02,54.47,177.35,77.74Z"/>
    <path class="cls-3" d="M499.16,737.59c-35.82-2.65,165.03-24.04,168.59-162.28,3.18-123.15-118.57-67.59-91.3-73.5,43.88-9.5,141.69-12.9,127.09,75.43-26.97,163.13-175.44,162.5-204.38,160.35Z"/>
    <path class="cls-3" d="M532.76,384.73c25.16,10.38-104.54-30.32-94.84,104.3,9.7,134.62,54.33,237.41,30.27,224.66-45.8-24.27-107-127.58-98.98-214.59,14.81-160.69,137.38-125.17,163.56-114.37Z"/>
    <path class="cls-3" d="M504.67,714.59c-34.99,2.23,134.16-55.59,115.66-189.28-18.5-133.69-136.06-152.58-107.08-143.93,49.67,14.82,169.86,63.5,167.56,150.85-4.25,161.32-147.87,180.56-176.14,182.36Z"/>
    <path class="cls-3" d="M565.83,428.01c26.78,6.03-53.43-91.47-70.29,36.37-16.86,127.84-1.29,231.79-17.38,215.74-30.62-30.54-58.76-137.79-36.94-218,40.3-148.11,102.98-38.99,124.62-34.12Z"/>
    <circle class="cls-13" cx="596.92" cy="379.6" r="1.81"/>
    <circle class="cls-13" cx="601.76" cy="388.3" r="1.81"/>
    <circle class="cls-13" cx="632.81" cy="383.06" r="1.81"/>
    <ellipse class="cls-13" cx="584.31" cy="370.72" rx="3.53" ry="2.09"/>
    <path class="cls-13" d="M618.42,395.81c1.83,3.72,1.33,10-5,7.52-2.57-1.01-2-4.35,0-7.52,2.22-3.51-5.52-7.52-2.76-7.52s5.34,2.59,7.76,7.52Z"/>
    <circle class="cls-32" cx="502.02" cy="310.09" r="1.81"/>
    <circle class="cls-32" cx="595.11" cy="310.09" r="1.81"/>
    <circle class="cls-32" cx="608.34" cy="324.96" r="4.19"/>
    <circle class="cls-32" cx="525.34" cy="374.13" r="2.88"/>
    <circle class="cls-32" cx="515.1" cy="374.64" r="1.83"/>
    <circle class="cls-32" cx="511.83" cy="378.44" r="1.44"/>
    <ellipse class="cls-13" cx="439.91" cy="318.67" rx="3.53" ry="2.09"/>
    <path class="cls-32" d="M512.79,333.04c.95,1.93.69,5.18-2.59,3.89-1.33-.52-1.04-2.25,0-3.89,1.15-1.82-2.86-3.89-1.43-3.89s2.76,1.34,4.02,3.89Z"/>
    <path class="cls-13" d="M600.56,301.31c3.24.37,7.17,3.37,2.84,6.5-1.76,1.27-3.72-.53-4.97-3.19-1.38-2.96-7.31.46-6.14-1.37s3.98-2.43,8.26-1.94Z"/>
    <path class="cls-3" d="M502.36,506.57c34.96,2.59-60.97-163.3-60.97-28.33,0,134.97,37.13,240.7,14.04,226.25-43.93-27.5-97.55-134.94-83.3-221.15,26.32-159.21,101.99,21.14,130.23,23.23Z"/>
    <path class="cls-33" d="M499.33,714.11c-27.51-9.06-58.66-26.26-92.58-51.14l-3.87-10.61,35-100.55,3.18-9.66h0l4.74,12.27c-1.3,35.76,12.81,64.74,21.91,85.4,8.63,19.6,21.68,32.04,39.89,38.04,12.35,4.07,23.29,3.81,33.45-.8,9.85-4.46,16.5-12.26,20.31-23.85,3.79-11.5,2.44-21.87-4.12-31.72-3.15-4.83-12.28-16.34-38.17-44.18-21.91-23.56-36.18-40.85-43.59-52.86-12.95-20.67-15.7-42.81-8.14-65.76,8.08-24.54,24.46-41.59,48.68-50.68,23.42-8.79,49.87-8.44,78.63,1.03,22.08,7.27,47.83,21.97,76.53,43.7l3.93,9.52-19.9,68.85-13.62,17.61h0l7.34-17.52c1.54-25.34-11.36-39.2-24.96-57.15-11.25-14.85-20.03-27.37-35.97-32.62-8.65-2.85-16.37-2.73-23.6.35-6.85,2.93-11.07,7.41-13.28,14.12-2.04,6.21-1.74,11.47.96,16.57,2.43,4.61,9.54,14.6,29.58,36.06,28.06,29.95,46.63,52.06,56.77,67.59,17.36,25.57,21.37,53.11,11.9,81.86-4.74,14.41-11.98,26.66-21.49,36.41-9.52,9.76-21.37,17.21-35.22,22.15-13.56,4.85-28.65,7.07-44.84,6.62-15.91-.45-32.55-3.5-49.47-9.07ZM539.64,559.16c24.46,25.95,28.79,39.04,34.78,49.72,9.6,16.89,19.06,32.25,12.93,50.86-2.35,7.13-35.93,35.99-39.73,41.53,9.89-6.41,43.19-30.16,56.32-33.39,13.02-3.21,30.12-29.86,22.83-44.94l-32.98-49.4c-12.98-19.73-27.38-32.18-33.57-41.56l-7.75-5.23c-22.16-23.51-12.16-15.12-18.75-27.58-7.31-13.83-19.77-52.35-15.39-66.09-2.95,4.12-30.23,33.11-31.95,38.33-4.46,13.55,8.2,21.7,14.81,33.3l-8.83,5.03c5.7,10.28,26.26,26.41,47.3,49.42Z"/>
    <path class="cls-2" d="M548.21,378.59c12.09,35.02-186.1-26.56-158.41,94.16,27.69,120.72,109.32,243.22,85.71,235.04-44.94-15.58-129.6-125.24-148.59-203.14-89.07-365.26,219.5-131.25,221.29-126.06Z"/>
    <path class="cls-9" d="M592.14,317.89c0,4.06-4.05,7.35-9.04,7.35-.97,0-1.91-.12-2.79-.36-.18.64-.44,1.27-.78,1.87-2.28,4.05-7.33,5.44-11.28,3.1-2.78-1.64-4.27-4.68-4.12-7.75-3.36-.67-5.83-2.96-5.83-5.68,0-3.25,3.53-5.88,7.88-5.88,3.26,0,6.06,1.47,7.26,3.58.55.07,1.1.2,1.64.39,1.5-2.36,4.53-3.97,8.02-3.97,4.99,0,9.04,3.29,9.04,7.35Z"/>
    <path class="cls-8" d="M636.69,366.09c0,4.06-4.15,7.35-9.26,7.35-1,0-1.96-.12-2.86-.36-.19.64-.45,1.27-.8,1.87-2.34,4.05-7.51,5.44-11.56,3.1-2.85-1.64-4.38-4.68-4.22-7.75-3.45-.67-5.98-2.96-5.98-5.68,0-3.25,3.62-5.88,8.08-5.88,3.34,0,6.21,1.47,7.44,3.58.56.07,1.13.2,1.68.39,1.54-2.36,4.65-3.97,8.22-3.97,5.11,0,9.26,3.29,9.26,7.35Z"/>
    <path class="cls-8" d="M620.24,336.54c3.83-1.35,8.31,1.47,10,6.3.33.94.53,1.89.61,2.81.67-.04,1.35,0,2.03.13,4.59.86,7.62,5.28,6.76,9.88-.6,3.23-2.97,5.68-5.91,6.56.51,3.47-.81,6.62-3.37,7.52-3.06,1.08-6.75-1.46-8.23-5.67-1.11-3.15-.67-6.35.91-8.2-.12-.55-.18-1.13-.19-1.71-2.74-.67-5.29-3.07-6.48-6.44-1.7-4.82.03-9.83,3.86-11.17Z"/>
    <path class="cls-8" d="M596.74,329.97c2.88-2.86,8.14-2.23,11.74,1.39.7.71,1.29,1.48,1.76,2.28.59-.32,1.22-.57,1.89-.75,4.52-1.19,9.15,1.5,10.34,6.02.84,3.18-.24,6.4-2.52,8.46,1.95,2.92,2.12,6.33.19,8.24-2.3,2.29-6.72,1.57-9.87-1.59-2.36-2.37-3.33-5.44-2.7-7.8-.34-.45-.65-.94-.9-1.47-2.76.57-6.09-.5-8.61-3.04-3.6-3.63-4.19-8.89-1.31-11.75Z"/>
    <path class="cls-7" d="M588.3,321.08c1.62-1.61,4.58-1.26,6.61.79.4.4.73.83.99,1.28.33-.18.69-.32,1.07-.42,2.55-.67,5.15.84,5.83,3.39.47,1.79-.14,3.61-1.42,4.76,1.1,1.64,1.19,3.56.11,4.64-1.3,1.29-3.79.89-5.56-.9-1.33-1.34-1.88-3.07-1.52-4.39-.19-.25-.37-.53-.51-.83-1.55.32-3.43-.28-4.85-1.71-2.03-2.04-2.36-5.01-.74-6.62Z"/>
    <path class="cls-7" d="M597.69,342.13c1.62-1.61,4.58-1.26,6.61.79.4.4.73.83.99,1.28.33-.18.69-.32,1.07-.42,2.55-.67,5.15.84,5.83,3.39.47,1.79-.14,3.61-1.42,4.76,1.1,1.64,1.19,3.56.11,4.64-1.3,1.29-3.79.89-5.56-.9-1.33-1.34-1.88-3.07-1.52-4.39-.19-.25-.37-.53-.51-.83-1.55.32-3.43-.28-4.85-1.71-2.03-2.04-2.36-5.01-.74-6.62Z"/>
    <path class="cls-6" d="M594.73,352.89c2.75-3,8.37-2.32,12.56,1.52.81.75,1.52,1.56,2.1,2.41.59-.33,1.23-.6,1.92-.78,4.66-1.24,9.83,1.62,11.56,6.39,1.22,3.35.4,6.75-1.8,8.9,2.36,3.08,2.89,6.67,1.05,8.68-2.2,2.4-6.95,1.63-10.6-1.72-2.74-2.51-4.08-5.75-3.66-8.23-.41-.48-.79-1-1.11-1.55-2.86.59-6.49-.55-9.42-3.24-4.18-3.84-5.35-9.38-2.6-12.38Z"/>
    <path class="cls-11" d="M612.41,388c1.37-1.5,4.19-1.16,6.28.76.41.37.76.78,1.05,1.2.29-.17.61-.3.96-.39,2.33-.62,4.92.81,5.78,3.2.61,1.68.2,3.37-.9,4.45,1.18,1.54,1.44,3.34.52,4.34-1.1,1.2-3.47.81-5.3-.86-1.37-1.25-2.04-2.87-1.83-4.11-.21-.24-.39-.5-.55-.78-1.43.3-3.25-.28-4.71-1.62-2.09-1.92-2.67-4.69-1.3-6.19Z"/>
    <path class="cls-10" d="M613.58,388.54c2.47-1.44,6.1.18,8.11,3.63.39.67.69,1.36.91,2.05.46-.1.95-.15,1.45-.12,3.38.14,6.26,3.13,6.43,6.69.12,2.5-1.13,4.61-3.05,5.6.95,2.56.55,5.08-1.1,6.04-1.98,1.15-5-.35-6.75-3.36-1.31-2.25-1.54-4.7-.75-6.28-.18-.4-.32-.83-.42-1.27-2.04-.2-4.24-1.72-5.65-4.13-2.01-3.44-1.64-7.4.83-8.85Z"/>
    <path class="cls-5" d="M729.01,352.89c2.75-3,8.37-2.32,12.56,1.52.81.75,1.52,1.56,2.1,2.41.59-.33,1.23-.6,1.92-.78,4.66-1.24,9.83,1.62,11.56,6.39,1.22,3.35.4,6.75-1.8,8.9,2.36,3.08,2.89,6.67,1.05,8.68-2.2,2.4-6.95,1.63-10.6-1.72-2.74-2.51-4.08-5.75-3.66-8.23-.41-.48-.79-1-1.11-1.55-2.86.59-6.49-.55-9.42-3.24-4.18-3.84-5.35-9.38-2.6-12.38Z"/>
    <circle class="cls-32" cx="549.26" cy="336.28" r="4.19"/>
    <path class="cls-9" d="M474.99,328.32c2.2,3.41.59,8.37-3.6,11.07-.82.53-1.67.93-2.54,1.21.19.64.32,1.3.36,1.99.28,4.64-3.21,8.54-7.79,8.72-3.22.13-6.13-1.62-7.67-4.27-3.19,1.26-6.51.68-7.98-1.6-1.76-2.73-.22-6.85,3.43-9.22,2.74-1.77,5.89-2.05,8.04-.93.5-.24,1.03-.43,1.59-.56-.02-2.8,1.65-5.8,4.59-7.69,4.19-2.71,9.37-2.14,11.58,1.27Z"/>
    <path class="cls-8" d="M487.12,346.81c2.48-3.21,7.78-3.27,11.82-.14.79.61,1.47,1.3,2.04,2.03.54-.39,1.13-.73,1.78-.99,4.33-1.77,9.27.3,11.04,4.63,1.25,3.04.59,6.38-1.41,8.71,2.31,2.64,2.92,6,1.25,8.15-1.99,2.57-6.46,2.43-9.99-.3-2.64-2.05-4.01-4.97-3.69-7.38-.4-.4-.77-.85-1.09-1.34-2.66.93-6.11.29-8.93-1.9-4.04-3.13-5.31-8.27-2.82-11.48Z"/>
    <path class="cls-8" d="M505.7,277.61c.87-3.96,5.62-6.29,10.62-5.2.97.21,1.89.54,2.72.96.32-.58.71-1.14,1.18-1.66,3.15-3.46,8.5-3.71,11.95-.56,2.43,2.21,3.27,5.51,2.47,8.47,3.22,1.39,5.21,4.17,4.63,6.82-.69,3.17-4.79,4.97-9.15,4.02-3.27-.71-5.75-2.77-6.5-5.08-.53-.19-1.06-.44-1.56-.74-2.01,1.98-5.39,2.89-8.88,2.12-5-1.09-8.34-5.19-7.48-9.16Z"/>
    <path class="cls-7" d="M446.83,328.5c.49-2.23,3.17-3.54,5.98-2.93.55.12,1.06.3,1.53.54.18-.33.4-.64.67-.93,1.77-1.95,4.79-2.09,6.73-.31,1.37,1.25,1.84,3.1,1.39,4.77,1.82.78,2.93,2.35,2.61,3.84-.39,1.79-2.7,2.8-5.15,2.26-1.84-.4-3.24-1.56-3.66-2.86-.3-.11-.6-.25-.88-.42-1.13,1.11-3.03,1.63-5,1.2-2.81-.62-4.7-2.92-4.21-5.16Z"/>
    <path class="cls-6" d="M496.16,356.31c.68-4.01,5.78-6.49,11.37-5.54,1.09.19,2.12.49,3.07.89.31-.6.71-1.17,1.19-1.7,3.24-3.57,9.14-3.97,13.18-.9,2.84,2.15,4,5.45,3.32,8.45,3.66,1.31,6.05,4.04,5.59,6.73-.55,3.21-4.95,5.14-9.84,4.3-3.66-.62-6.55-2.61-7.54-4.93-.6-.18-1.2-.41-1.77-.7-2.08,2.05-5.76,3.06-9.67,2.39-5.6-.95-9.58-4.98-8.9-8.99Z"/>
    <path class="cls-10" d="M460.05,301.94c1.29-2.55,5.22-3.15,8.78-1.35.69.35,1.32.77,1.87,1.23.33-.34.72-.64,1.15-.89,2.91-1.72,6.96-.77,9.03,2.13,1.46,2.03,1.55,4.48.47,6.36,2.18,1.64,3.22,3.97,2.35,5.67-1.03,2.04-4.39,2.42-7.49.85-2.33-1.18-3.85-3.11-4.04-4.87-.37-.24-.72-.52-1.04-.84-1.82.94-4.5.86-6.99-.4-3.56-1.8-5.4-5.33-4.1-7.88Z"/>
    <path class="cls-6" d="M473.36,340.15c.68-4.01,5.78-6.49,11.37-5.54,1.09.19,2.12.49,3.07.89.31-.6.71-1.17,1.19-1.7,3.24-3.57,9.14-3.97,13.18-.9,2.84,2.15,4,5.45,3.32,8.45,3.66,1.31,6.05,4.04,5.59,6.73-.55,3.21-4.95,5.14-9.84,4.3-3.66-.62-6.55-2.61-7.54-4.93-.6-.18-1.2-.41-1.77-.7-2.08,2.05-5.76,3.06-9.67,2.39-5.6-.95-9.58-4.98-8.9-8.99Z"/>
  </g>
  <g>
    <path class="cls-31" d="M661.44,770.7c-.85-1.98-1.7-3.97-2.7-6.31-4.87,3.6-4.93,3.6-4.35,28.32.07,2.99-1.93,7.21,3.65,8.32,4.14-3.06,5.22-13.17,2.75-24.16-1.25.01-2.51.02-3.76.04"/>
    <path class="cls-31" d="M646.94,801.03c-.46-11.43-.87-22.86-1.49-34.28-.03-.59-1.75-1.11-4.22-2.57-.94,2.99-2.23,5.21-2.24,7.43-.06,9.83.25,19.66.43,29.49"/>
    <path class="cls-31" d="M698.09,800.53c-.2-10.97-.3-21.95-.74-32.91-.04-1.06-2.17-2.06-4.82-4.41-1.09,3.47-2.38,5.68-2.39,7.91-.06,9.83.25,19.66.43,29.49"/>
    <path class="cls-31" d="M619.12,801.3c-.17-9.6-.16-19.21-.64-28.8-.13-2.5-1.81-4.95-4.14-7.18-6.23,11.89-2.52,24.16-3.49,36.06"/>
    <path class="cls-31" d="M588.58,776.22q1.18-9.1-6.58-10.29c.21,11.64.42,23.27.63,34.91.79.32,3.91,1.51,5.75.21,1.12-.79,1.46-2.12,1.35-4.26-.24-5.02,0-10.07-.39-15.08-.24-3.06-1.14-6.26-6.01-4.06"/>
    <path class="cls-31" d="M632.86,770.98c-.85-1.98-1.7-3.96-2.7-6.31-4.87,3.6-4.93,3.6-4.35,28.32.07,2.99-1.93,7.21,5.18,8.63.77-1.97,1.54-3.96,2.32-5.96"/>
    <path class="cls-31" d="M668.87,765.15c.21,11.66.42,23.32.64,35.66,2.49-.02,5.01-.05,7.52-.07"/>
    <path class="cls-31" d="M682.48,769.13c.19,10.52.38,21.03.57,31.55"/>
    <path class="cls-31" d="M602.14,777.46c.34-3.62.68-7.25,1.06-11.33l-6.52.06c.21,11.54.42,23.43.64,35.32"/>
    <path class="cls-31" d="M598.36,776.81c4.65.31,6.23,2.79,6.18,6.8-.06,5.94.17,11.89.28,17.83"/>
    <line class="cls-19" x1="579.47" y1="810.53" x2="703.53" y2="815.64"/>
    <line class="cls-27" x1="685.71" y1="765.21" x2="680.22" y2="760.8"/>
    <line class="cls-27" x1="684.79" y1="761.17" x2="678.77" y2="764.8"/>
  </g>
  <g>
    <path class="cls-28" d="M534.24,431.92c-1.56-3.49-3.05-7.02-4.73-10.45-.44-.9-1.44-1.53-2.64-1.99-.43,5.33,2.85,9.25,4.35,13.76"/>
    <path class="cls-28" d="M540.76,414.86c1.9,4.24,3.79,8.48,5.8,12.97l2.75-1.2"/>
    <path class="cls-28" d="M546.92,412.42c1.9,4.24,3.79,8.48,5.8,12.97l2.75-1.2"/>
    <path class="cls-23" d="M546.52,412.61l6.11-2.51"/>
    <path class="cls-25" d="M524.4,428.25l7.83-3.2"/>
    <path class="cls-25" d="M546.88,418.92c2.61-1.07,5.22-2.14,7.83-3.2"/>
    <path class="cls-24" d="M538.64,416.46l5.15-2.13"/>
    <path class="cls-28" d="M536.86,420.93c-.44-1.38-.88-2.76-1.38-4.32l-2.38,1.04c1.88,4.2,3.81,8.52,5.74,12.84"/>
    <path class="cls-28" d="M535.38,421.28c1.75-.61,2.72.05,3.33,1.53.9,2.19,1.92,4.33,2.88,6.49"/>
  </g>
  <path class="cls-30" d="M580.89,411.19q.33-4.04-3.12-4.4c.33,5.13.67,10.26,1,15.4.36.13,1.76.58,2.54-.03.48-.37.6-.97.51-1.91-.21-2.21-.21-4.45-.48-6.65-.17-1.35-.63-2.74-2.74-1.67"/>
  <path class="cls-30" d="M568.23,406.76c.33,5.14.67,10.28,1.02,15.73l3.32-.19"/>
  <path class="cls-20" d="M574.15,408.29c.29,4.46.58,8.92.87,13.37"/>
  <path class="cls-30" d="M609.96,421.62c-.27-4.23-.47-8.48-.88-12.7-.11-1.1-.9-2.15-1.97-3.09-2.5,5.38-.61,10.72-.8,15.99"/>
  <path class="cls-26" d="M601.3,413.41c2.42-.08,4.83-.17,7.25-.25"/>
  <path class="cls-29" d="M586.67,408.66c.27,4.13.54,8.27.82,12.64l2.67-.15"/>
  <path class="cls-22" d="M584.62,414.08l7.54-.25"/>
  <path class="cls-17" d="M585.81,408.84l4.97-.18"/>
  <path class="cls-30" d="M597.35,410.02c.07-1.61.15-3.21.23-5.02l-2.88.16c.33,5.09.67,10.33,1.01,15.58"/>
  <path class="cls-21" d="M595.65,411.62c2.08.03,2.82,1.04,2.88,2.72.09,2.49.3,4.98.47,7.47"/>
  <g>
    <g>
      <path class="cls-18" d="M631.32,410.6c-.88,3.96-1.83,7.91-2.58,11.9-.2,1.04.26,2.21.99,3.36,3.73-4.27,3.42-9.68,5-14.47"/>
      <path class="cls-18" d="M655.1,416.46c-.72,4.39-1.44,8.77-2.16,13.16"/>
      <path class="cls-18" d="M624.03,409.24c-.8,4.86-1.6,9.72-2.45,14.87l3.13.54"/>
      <path class="cls-15" d="M621.88,408.72c2.29.45,4.58.9,6.88,1.35"/>
      <path class="cls-18" d="M638.92,412.26c-.8,4.86-1.6,9.72-2.45,14.87l3.13.54"/>
      <path class="cls-15" d="M636.77,411.75l6.88,1.35"/>
      <path class="cls-18" d="M648.59,414.24c-.8,4.86-1.6,9.72-2.45,14.87l3.13.54"/>
      <path class="cls-15" d="M646.03,413.64l6.88,1.35"/>
      <line class="cls-16" x1="653.65" y1="434.9" x2="651.32" y2="432.21"/>
    </g>
    <line class="cls-16" x1="653.56" y1="432.81" x2="650.24" y2="434.07"/>
  </g>
</svg>