<?xml version="1.0" encoding="UTF-8"?>
<svg id="Livello_1" data-name="Livello 1" xmlns="http://www.w3.org/2000/svg" viewBox="0 0 414.38 462.3">
  <defs>
    <style>
      .cls-1 {
        fill: #999;
        opacity: .55;
      }

      .cls-1, .cls-2, .cls-3, .cls-4, .cls-5, .cls-6, .cls-7, .cls-8, .cls-9, .cls-10 {
        stroke: #2a4b9b;
      }

      .cls-1, .cls-2, .cls-3, .cls-4, .cls-5, .cls-6, .cls-7, .cls-8, .cls-9, .cls-10, .cls-11 {
        stroke-miterlimit: 10;
      }

      .cls-1, .cls-2, .cls-10 {
        stroke-width: 2px;
      }

      .cls-12 {
        fill: #001627;
      }

      .cls-2, .cls-3 {
        opacity: .37;
      }

      .cls-2, .cls-3, .cls-10, .cls-11 {
        fill: #00aa9e;
      }

      .cls-3 {
        stroke-width: 2.23px;
      }

      .cls-4 {
        stroke-width: .66px;
      }

      .cls-4, .cls-5, .cls-6, .cls-7, .cls-8, .cls-9 {
        opacity: .64;
      }

      .cls-4, .cls-5, .cls-6, .cls-7, .cls-8, .cls-9, .cls-13 {
        fill: #f2f2f2;
      }

      .cls-5 {
        stroke-width: .35px;
      }

      .cls-6 {
        stroke-width: .63px;
      }

      .cls-7 {
        stroke-width: .62px;
      }

      .cls-8 {
        stroke-width: .46px;
      }

      .cls-9 {
        stroke-width: .33px;
      }

      .cls-10, .cls-11 {
        opacity: .29;
      }

      .cls-11 {
        stroke: #000;
        stroke-width: .23px;
      }

      .cls-13 {
        opacity: .66;
      }
    </style>
  </defs>
  <path class="cls-11" d="M294.06,165.32c.92,1.86.67,5-2.5,3.76-1.29-.5-1-2.17,0-3.76,1.11-1.75-2.76-3.76-1.38-3.76s2.67,1.29,3.88,3.76Z"/>
  <path class="cls-1" d="M333,447.39l-6.9.99c-.42.99-8.33,2.1-10.6,2.3-8.05.7-13.5,1.62-26.26,2.34-17.06.97-13.86.94-18.02,1.08-15.67.51-29.74-.13-42.47-.84-.73-.04-1.39-.05-2.17-.11-35.69-3.04-71.39-6.07-107.08-9.11,13.09.79,26.05,1.31,38.7,1.5,38.05.57,59.65-2.12,88.17-6.17.78-.11,1.1-.42,1.65-.63,11.66-4.5,14.9-8.07,14.87-15.61,0-.84-.02-1.73-.56-2.77l-4.43-8.56c-.46-.89,1.13-2.74,1.13-2.74,13.64-1.59,66.74,23.13,73.23,28.77,8.7,7.56,1.51,7.77.73,9.57Z"/>
  <path class="cls-2" d="M320.58,101.32c-21.52,12.62-21.26-69.38-140.45-24.28-119.19,45.1-41.41,378.75-37.3,353.36,4.64-28.68-199.01-332.96.41-406.83,115.6-42.82,217.02,54.47,177.35,77.74Z"/>
  <path class="cls-2" d="M207.53,460.86c-35.82-2.65,165.03-24.04,168.59-162.28,3.18-123.15-118.57-67.59-91.3-73.5,43.88-9.5,141.69-12.9,127.09,75.43-26.97,163.13-175.44,162.5-204.38,160.35Z"/>
  <path class="cls-2" d="M241.12,108c25.16,10.38-104.54-30.32-94.84,104.3,9.7,134.62,54.33,237.41,30.27,224.66-45.8-24.27-107-127.58-98.98-214.59,14.81-160.69,137.38-125.17,163.56-114.37Z"/>
  <path class="cls-2" d="M213.03,437.87c-34.99,2.23,134.16-55.59,115.66-189.28-18.5-133.69-136.06-152.58-107.08-143.93,49.67,14.82,169.86,63.5,167.56,150.85-4.25,161.32-147.87,180.56-176.14,182.36Z"/>
  <path class="cls-2" d="M274.19,151.28c26.78,6.03-53.43-91.47-70.29,36.37-16.86,127.84-1.29,231.79-17.38,215.74-30.62-30.54-58.76-137.79-36.94-218,40.3-148.11,102.98-38.99,124.62-34.12Z"/>
  <circle class="cls-10" cx="305.28" cy="102.87" r="1.81"/>
  <circle class="cls-10" cx="310.12" cy="111.57" r="1.81"/>
  <circle class="cls-10" cx="341.17" cy="106.33" r="1.81"/>
  <ellipse class="cls-10" cx="292.67" cy="93.99" rx="3.53" ry="2.09"/>
  <path class="cls-10" d="M326.78,119.08c1.83,3.72,1.33,10-5,7.52-2.57-1.01-2-4.35,0-7.52,2.22-3.51-5.52-7.52-2.76-7.52s5.34,2.59,7.76,7.52Z"/>
  <circle class="cls-13" cx="210.39" cy="33.36" r="1.81"/>
  <circle class="cls-13" cx="303.47" cy="33.36" r="1.81"/>
  <circle class="cls-13" cx="316.7" cy="48.23" r="4.19"/>
  <circle class="cls-13" cx="233.71" cy="97.4" r="2.88"/>
  <circle class="cls-13" cx="223.46" cy="97.91" r="1.83"/>
  <circle class="cls-13" cx="220.19" cy="101.71" r="1.44"/>
  <ellipse class="cls-10" cx="148.27" cy="41.94" rx="3.53" ry="2.09"/>
  <path class="cls-13" d="M221.15,56.31c.95,1.93.69,5.18-2.59,3.89-1.33-.52-1.04-2.25,0-3.89,1.15-1.82-2.86-3.89-1.43-3.89s2.76,1.34,4.02,3.89Z"/>
  <path class="cls-10" d="M308.92,24.58c3.24.37,7.17,3.37,2.84,6.5-1.76,1.27-3.72-.53-4.97-3.19-1.38-2.96-7.31.46-6.14-1.37,1.17-1.82,3.98-2.43,8.26-1.94Z"/>
  <path class="cls-12" d="M207.69,437.38c-27.51-9.06-58.66-26.26-92.58-51.14l-3.87-10.61,35-100.55,3.18-9.66h0l4.74,12.27c-1.3,35.76,12.81,64.74,21.91,85.4,8.63,19.6,21.68,32.04,39.89,38.04,12.35,4.07,23.29,3.81,33.45-.8,9.85-4.46,16.5-12.26,20.31-23.85,3.79-11.5,2.44-21.87-4.12-31.72-3.15-4.83-12.28-16.34-38.17-44.18-21.91-23.56-36.18-40.85-43.59-52.86-12.95-20.67-15.7-42.81-8.14-65.76,8.08-24.54,24.46-41.59,48.68-50.68,23.42-8.79,49.87-8.44,78.63,1.03,22.08,7.27,47.83,21.97,76.53,43.7l3.93,9.52-19.9,68.85-13.62,17.61h0l7.34-17.52c1.54-25.34-11.36-39.2-24.96-57.15-11.25-14.85-20.03-27.37-35.97-32.62-8.65-2.85-16.37-2.73-23.6.35-6.85,2.93-11.07,7.41-13.28,14.12-2.04,6.21-1.74,11.47.96,16.57,2.43,4.61,9.54,14.6,29.58,36.06,28.06,29.95,46.63,52.06,56.77,67.59,17.36,25.57,21.37,53.11,11.9,81.86-4.74,14.41-11.98,26.66-21.49,36.41-9.52,9.76-21.37,17.21-35.22,22.15-13.56,4.85-28.65,7.07-44.84,6.62-15.91-.45-32.55-3.5-49.47-9.07ZM248.01,282.43c24.46,25.95,28.79,39.04,34.78,49.72,9.6,16.89,19.06,32.25,12.93,50.86-2.35,7.13-35.93,35.99-39.73,41.53,9.89-6.41,43.19-30.16,56.32-33.39,13.02-3.21,30.12-29.86,22.83-44.94l-32.98-49.4c-12.98-19.73-27.38-32.18-33.57-41.56l-7.75-5.23c-22.16-23.51-12.16-15.12-18.75-27.58-7.31-13.83-19.77-52.35-15.39-66.09-2.95,4.12-30.23,33.11-31.95,38.33-4.46,13.55,8.2,21.7,14.81,33.3l-8.83,5.03c5.7,10.28,26.26,26.41,47.3,49.42Z"/>
  <path class="cls-2" d="M210.72,229.84c34.96,2.59-60.97-163.3-60.97-28.33,0,134.97,37.13,240.7,14.04,226.25-43.93-27.5-97.55-134.94-83.3-221.15,26.32-159.21,101.99,21.14,130.23,23.23Z"/>
  <path class="cls-2" d="M252.46,84.23c12.8,37.09-197.1-28.13-167.77,99.73,29.33,127.86,115.78,257.6,90.77,248.92-47.59-16.5-137.26-132.64-157.38-215.15C-76.24-169.12,250.56,78.73,252.46,84.23Z"/>
  <path class="cls-3" d="M181.94,443.71c-37.71,5.93,145.85-90.4,110.29-240.03-35.56-149.62-136.56-17.23-113-24.76,38.28-12.24,165.09-58.07,172.71,41.09,14.07,183.13-139.54,218.91-170,223.7Z"/>
  <path class="cls-7" d="M300.51,41.16c0,4.06-4.05,7.35-9.04,7.35-.97,0-1.91-.12-2.79-.36-.18.64-.44,1.27-.78,1.87-2.28,4.05-7.33,5.44-11.28,3.1-2.78-1.64-4.27-4.68-4.12-7.75-3.36-.67-5.83-2.96-5.83-5.68,0-3.25,3.53-5.88,7.88-5.88,3.26,0,6.06,1.47,7.26,3.58.55.07,1.1.2,1.64.39,1.5-2.36,4.53-3.97,8.02-3.97,4.99,0,9.04,3.29,9.04,7.35Z"/>
  <path class="cls-6" d="M345.06,89.36c0,4.06-4.15,7.35-9.26,7.35-1,0-1.96-.12-2.86-.36-.19.64-.45,1.27-.8,1.87-2.34,4.05-7.51,5.44-11.56,3.1-2.85-1.64-4.38-4.68-4.22-7.75-3.45-.67-5.98-2.96-5.98-5.68,0-3.25,3.62-5.88,8.08-5.88,3.34,0,6.21,1.47,7.44,3.58.56.07,1.13.2,1.68.39,1.54-2.36,4.65-3.97,8.22-3.97,5.11,0,9.26,3.29,9.26,7.35Z"/>
  <path class="cls-6" d="M328.6,59.81c3.83-1.35,8.31,1.47,10,6.3.33.94.53,1.89.61,2.81.67-.04,1.35,0,2.03.13,4.59.86,7.62,5.28,6.76,9.88-.6,3.23-2.97,5.68-5.91,6.56.51,3.47-.81,6.62-3.37,7.52-3.06,1.08-6.75-1.46-8.23-5.67-1.11-3.15-.67-6.35.91-8.2-.12-.55-.18-1.13-.19-1.71-2.74-.67-5.29-3.07-6.48-6.44-1.7-4.82.03-9.83,3.86-11.17Z"/>
  <path class="cls-6" d="M305.11,53.24c2.88-2.86,8.14-2.23,11.74,1.39.7.71,1.29,1.48,1.76,2.28.59-.32,1.22-.57,1.89-.75,4.52-1.19,9.15,1.5,10.34,6.02.84,3.18-.24,6.4-2.52,8.46,1.95,2.92,2.12,6.33.19,8.24-2.3,2.29-6.72,1.57-9.87-1.59-2.36-2.37-3.33-5.44-2.7-7.8-.34-.45-.65-.94-.9-1.47-2.76.57-6.09-.5-8.61-3.04-3.6-3.63-4.19-8.89-1.31-11.75Z"/>
  <path class="cls-5" d="M296.66,44.35c1.62-1.61,4.58-1.26,6.61.79.4.4.73.83.99,1.28.33-.18.69-.32,1.07-.42,2.55-.67,5.15.84,5.83,3.39.47,1.79-.14,3.61-1.42,4.76,1.1,1.64,1.19,3.56.11,4.64-1.3,1.29-3.79.89-5.56-.9-1.33-1.34-1.88-3.07-1.52-4.39-.19-.25-.37-.53-.51-.83-1.55.32-3.43-.28-4.85-1.71-2.03-2.04-2.36-5.01-.74-6.62Z"/>
  <path class="cls-5" d="M306.05,65.4c1.62-1.61,4.58-1.26,6.61.79.4.4.73.83.99,1.28.33-.18.69-.32,1.07-.42,2.55-.67,5.15.84,5.83,3.39.47,1.79-.14,3.61-1.42,4.76,1.1,1.64,1.19,3.56.11,4.64-1.3,1.29-3.79.89-5.56-.9-1.33-1.34-1.88-3.07-1.52-4.39-.19-.25-.37-.53-.51-.83-1.55.32-3.43-.28-4.85-1.71-2.03-2.04-2.36-5.01-.74-6.62Z"/>
  <path class="cls-4" d="M303.1,76.16c2.75-3,8.37-2.32,12.56,1.52.81.75,1.52,1.56,2.1,2.41.59-.33,1.23-.6,1.92-.78,4.66-1.24,9.83,1.62,11.56,6.39,1.22,3.35.4,6.75-1.8,8.9,2.36,3.08,2.89,6.67,1.05,8.68-2.2,2.4-6.95,1.63-10.6-1.72-2.74-2.51-4.08-5.75-3.66-8.23-.41-.48-.79-1-1.11-1.55-2.86.59-6.49-.55-9.42-3.24-4.18-3.84-5.35-9.38-2.6-12.38Z"/>
  <path class="cls-9" d="M320.78,111.27c1.37-1.5,4.19-1.16,6.28.76.41.37.76.78,1.05,1.2.29-.17.61-.3.96-.39,2.33-.62,4.92.81,5.78,3.2.61,1.68.2,3.37-.9,4.45,1.18,1.54,1.44,3.34.52,4.34-1.1,1.2-3.47.81-5.3-.86-1.37-1.25-2.04-2.87-1.83-4.11-.21-.24-.39-.5-.55-.78-1.43.3-3.25-.28-4.71-1.62-2.09-1.92-2.67-4.69-1.3-6.19Z"/>
  <path class="cls-8" d="M321.94,111.81c2.47-1.44,6.1.18,8.11,3.63.39.67.69,1.36.91,2.05.46-.1.95-.15,1.45-.12,3.38.14,6.26,3.13,6.43,6.69.12,2.5-1.13,4.61-3.05,5.6.95,2.56.55,5.08-1.1,6.04-1.98,1.15-5-.35-6.75-3.36-1.31-2.25-1.54-4.7-.75-6.28-.18-.4-.32-.83-.42-1.27-2.04-.2-4.24-1.72-5.65-4.13-2.01-3.44-1.64-7.4.83-8.85Z"/>
  <path class="cls-4" d="M292.72,50.21c2.75-3,8.37-2.32,12.56,1.52.81.75,1.52,1.56,2.1,2.41.59-.33,1.23-.6,1.92-.78,4.66-1.24,9.83,1.62,11.56,6.39,1.22,3.35.4,6.75-1.8,8.9,2.36,3.08,2.89,6.67,1.05,8.68-2.2,2.4-6.95,1.63-10.6-1.72-2.74-2.51-4.08-5.75-3.66-8.23-.41-.48-.79-1-1.11-1.55-2.86.59-6.49-.55-9.42-3.24-4.18-3.84-5.35-9.38-2.6-12.38Z"/>
  <circle class="cls-13" cx="180.27" cy="13.46" r="4.19"/>
  <path class="cls-7" d="M162.83,16.31c2.2,3.41.59,8.37-3.6,11.07-.82.53-1.67.93-2.54,1.21.19.64.32,1.3.36,1.99.28,4.64-3.21,8.54-7.79,8.72-3.22.13-6.13-1.62-7.67-4.27-3.19,1.26-6.51.68-7.98-1.6-1.76-2.73-.22-6.85,3.43-9.22,2.74-1.77,5.89-2.05,8.04-.93.5-.24,1.03-.43,1.59-.56-.02-2.8,1.65-5.8,4.59-7.69,4.19-2.71,9.37-2.14,11.58,1.27Z"/>
  <path class="cls-6" d="M196.55,16.72c2.48-3.21,7.78-3.27,11.82-.14.79.61,1.47,1.3,2.04,2.03.54-.39,1.13-.73,1.78-.99,4.33-1.77,9.27.3,11.04,4.63,1.25,3.04.59,6.38-1.41,8.71,2.31,2.64,2.92,6,1.25,8.15-1.99,2.57-6.46,2.43-9.99-.3-2.64-2.05-4.01-4.97-3.69-7.38-.4-.4-.77-.85-1.09-1.34-2.66.93-6.11.29-8.93-1.9-4.04-3.13-5.31-8.27-2.82-11.48Z"/>
  <path class="cls-6" d="M173.24,23.96c.87-3.96,5.62-6.29,10.62-5.2.97.21,1.89.54,2.72.96.32-.58.71-1.14,1.18-1.66,3.15-3.46,8.5-3.71,11.95-.56,2.43,2.21,3.27,5.51,2.47,8.47,3.22,1.39,5.21,4.17,4.63,6.82-.69,3.17-4.79,4.97-9.15,4.02-3.27-.71-5.75-2.77-6.5-5.08-.53-.19-1.06-.44-1.56-.74-2.01,1.98-5.39,2.89-8.88,2.12-5-1.09-8.34-5.19-7.48-9.16Z"/>
  <path class="cls-5" d="M161.33,21.07c.49-2.23,3.17-3.54,5.98-2.93.55.12,1.06.3,1.53.54.18-.33.4-.64.67-.93,1.77-1.95,4.79-2.09,6.73-.31,1.37,1.25,1.84,3.1,1.39,4.77,1.82.78,2.93,2.35,2.61,3.84-.39,1.79-2.7,2.8-5.15,2.26-1.84-.4-3.24-1.56-3.66-2.86-.3-.11-.6-.25-.88-.42-1.13,1.11-3.03,1.63-5,1.2-2.81-.62-4.7-2.92-4.21-5.16Z"/>
  <path class="cls-4" d="M183.99,44.3c.68-4.01,5.78-6.49,11.37-5.54,1.09.19,2.12.49,3.07.89.31-.6.71-1.17,1.19-1.7,3.24-3.57,9.14-3.97,13.18-.9,2.84,2.15,4,5.45,3.32,8.45,3.66,1.31,6.05,4.04,5.59,6.73-.55,3.21-4.95,5.14-9.84,4.3-3.66-.62-6.55-2.61-7.54-4.93-.6-.18-1.2-.41-1.77-.7-2.08,2.05-5.76,3.06-9.67,2.39-5.6-.95-9.58-4.98-8.9-8.99Z"/>
  <path class="cls-8" d="M219.17,64.02c1.29-2.55,5.22-3.15,8.78-1.35.69.35,1.32.77,1.87,1.23.33-.34.72-.64,1.15-.89,2.91-1.72,6.96-.77,9.03,2.13,1.46,2.03,1.55,4.48.47,6.36,2.18,1.64,3.22,3.97,2.35,5.67-1.03,2.04-4.39,2.42-7.49.85-2.33-1.18-3.85-3.11-4.04-4.87-.37-.24-.72-.52-1.04-.84-1.82.94-4.5.86-6.99-.4-3.56-1.8-5.4-5.33-4.1-7.88Z"/>
  <path class="cls-4" d="M161.2,28.13c.68-4.01,5.78-6.49,11.37-5.54,1.09.19,2.12.49,3.07.89.31-.6.71-1.17,1.19-1.7,3.24-3.57,9.14-3.97,13.18-.9,2.84,2.15,4,5.45,3.32,8.45,3.66,1.31,6.05,4.04,5.59,6.73-.55,3.21-4.95,5.14-9.84,4.3-3.66-.62-6.55-2.61-7.54-4.93-.6-.18-1.2-.41-1.77-.7-2.08,2.05-5.76,3.06-9.67,2.39-5.6-.95-9.58-4.98-8.9-8.99Z"/>
</svg>